# xmcd
#
# Track frame offsets:
#	150
#	15098
#	30396
#	44844
#	62308
#	83775
#	105599
#	122348
#	134349
#	156899
#	185723
#	202610
#	229456
#	259304
#	277832
#	296354
#
# Disc length: 4126 seconds
# Revision: 2
# Processed by: cddbd v1.5.2PL0 Copyright (c) Steve Scherf et al.
# Submitted via: dBpowerAMP V12.0
#
DISCID=ce101c10
DTITLE=Various Artist - The Copenhagen Blues Sessions vol 2
DYEAR=2004
DGENRE=Blues
TTITLE0=Thorbjørn Risager: Blue 7 - Hold On
TTITLE1=The Blues Junction - Introduced To The Blues
TTITLE2=The French Cabaret - Sweet Surrounding Cure
TTITLE3=Troels Jensen  and  The Healers - Someone Shot The Blues
TTITLE4=SP Just and Frost - Shake That Ass
TTITLE5=Peter Thorup med Thor Backhausen - Go' Mandag
TTITLE6=Mike Andersen Band feat. Al Agami - Same Damn Time
TTITLE7=Dan Klarskov and The Honeydrippers - What Is Wrong With You
TTITLE8=Wet Cat Blues Band - Mojo Blues
TTITLE9=Kenn Lendings Blues Band - Black Clouds
TTITLE10=Smalltown - On And Off The Blues
TTITLE11=M.C. Hansen Band - Freedom For Sale
TTITLE12=The Organizers - Space Cadets
TTITLE13=Martin Olsens Blues Overdrive - Feeling Kind Of Blue
TTITLE14=Nande and The Big Difference - Don't Count Your Chickens
TTITLE15=L.P.'s Blues Band - Stuck With The Blues
EXTD=
EXTT0=
EXTT1=
EXTT2=
EXTT3=
EXTT4=
EXTT5=
EXTT6=
EXTT7=
EXTT8=
EXTT9=
EXTT10=
EXTT11=
EXTT12=
EXTT13=
EXTT14=
EXTT15=
PLAYORDER=
